{
  "accessors": [
    {
      "bufferView": 2,
      "componentType": 5126,
      "count": 12,
      "max": [
        0.2756339907646179,
        0.4549970030784607,
        0.17528299987316132
      ],
      "min": [
        0.2756330072879791,
        -0.4549970030784607,
        -0.14499500393867493
      ],
      "type": "VEC3"
    },
    {
      "bufferView": 2,
      "byteOffset": 144,
      "componentType": 5126,
      "count": 12,
      "max": [
        1.0,
        0.0,
        -0.0
      ],
      "min": [
        1.0,
        0.0,
        -0.0
      ],
      "type": "VEC3"
    },
    {
      "bufferView": 1,
      "componentType": 5126,
      "count": 12,
      "max": [
        0.3520730137825012,
        0.9989879727363586
      ],
      "min": [
        0.0001990000018849969,
        -0.0008009999874047935
      ],
      "type": "VEC2"
    },
    {
      "bufferView": 0,
      "componentType": 5125,
      "count": 30,
      "type": "SCALAR"
    },
    {
      "bufferView": 2,
      "byteOffset": 288,
      "componentType": 5126,
      "count": 4446,
      "max": [
        0.2867870032787323,
        0.4875679910182953,
        0.22152799367904663
      ],
      "min": [
        -0.3124710023403168,
        -0.4875679910182953,
        -0.19002899527549744
      ],
      "type": "VEC3"
    },
    {
      "bufferView": 2,
      "byteOffset": 53640,
      "componentType": 5126,
      "count": 4446,
      "max": [
        1.0,
        1.0,
        1.0
      ],
      "min": [
        -1.0,
        -1.0,
        -1.0
      ],
      "type": "VEC3"
    },
    {
      "bufferView": 1,
      "byteOffset": 96,
      "componentType": 5126,
      "count": 4446,
      "max": [
        0.9992870092391968,
        0.9787499904632568
      ],
      "min": [
        0.0007130000158213079,
        0.0007130000158213079
      ],
      "type": "VEC2"
    },
    {
      "bufferView": 0,
      "byteOffset": 120,
      "componentType": 5125,
      "count": 14772,
      "type": "SCALAR"
    },
    {
      "bufferView": 2,
      "byteOffset": 106992,
      "componentType": 5126,
      "count": 192,
      "max": [
        -0.06805100291967392,
        0.43538999557495117,
        0.1516149938106537
      ],
      "min": [
        -0.1800689995288849,
        -0.43539100885391235,
        -0.14878800511360168
      ],
      "type": "VEC3"
    },
    {
      "bufferView": 2,
      "byteOffset": 109296,
      "componentType": 5126,
      "count": 192,
      "max": [
        -0.10160256922245026,
        0.9948251247406006,
        0.0
      ],
      "min": [
        -0.10160256922245026,
        -0.9948251247406006,
        0.0
      ],
      "type": "VEC3"
    },
    {
      "bufferView": 1,
      "byteOffset": 35664,
      "componentType": 5126,
      "count": 192,
      "max": [
        0.7505789995193481,
        0.9993889927864075
      ],
      "min": [
        0.000610999995842576,
        0.000610999995842576
      ],
      "type": "VEC2"
    },
    {
      "bufferView": 0,
      "byteOffset": 59208,
      "componentType": 5125,
      "count": 564,
      "type": "SCALAR"
    },
    {
      "bufferView": 2,
      "byteOffset": 111600,
      "componentType": 5126,
      "count": 80,
      "max": [
        0.2867870032787323,
        0.46414700150489807,
        0.1832599937915802
      ],
      "min": [
        0.2756330072879791,
        -0.46414700150489807,
        -0.1529719978570938
      ],
      "type": "VEC3"
    },
    {
      "bufferView": 2,
      "byteOffset": 112560,
      "componentType": 5126,
      "count": 80,
      "max": [
        0.7846758365631104,
        0.7947922945022583,
        0.8365115523338318
      ],
      "min": [
        0.5442916750907898,
        -0.7947922945022583,
        -0.836587131023407
      ],
      "type": "VEC3"
    },
    {
      "bufferView": 1,
      "byteOffset": 37200,
      "componentType": 5126,
      "count": 80,
      "max": [
        0.9932940006256104,
        0.92330402135849
      ],
      "min": [
        0.31111299991607666,
        0.0007409999961964786
      ],
      "type": "VEC2"
    },
    {
      "bufferView": 0,
      "byteOffset": 61464,
      "componentType": 5125,
      "count": 168,
      "type": "SCALAR"
    }
  ],
  "asset": {
    "extras": {
      "author": "cabriocat (https://sketchfab.com/cabriocatartist)",
      "license": "CC-BY-4.0 (http://creativecommons.org/licenses/by/4.0/)",
      "source": "https://sketchfab.com/3d-models/pa-concert-speaker-clean-b6d18dc5a9ae49aa872b5d2af72da659",
      "title": "PA concert speaker - clean"
    },
    "generator": "Sketchfab-13.73.0",
    "version": "2.0"
  },
  "bufferViews": [
    {
      "buffer": 0,
      "byteLength": 62136,
      "name": "floatBufferViews",
      "target": 34963
    },
    {
      "buffer": 0,
      "byteLength": 37840,
      "byteOffset": 62136,
      "byteStride": 8,
      "name": "floatBufferViews",
      "target": 34962
    },
    {
      "buffer": 0,
      "byteLength": 113520,
      "byteOffset": 99976,
      "byteStride": 12,
      "name": "floatBufferViews",
      "target": 34962
    }
  ],
  "buffers": [
    {
      "byteLength": 213496,
      "uri": "scene.bin"
    }
  ],
  "images": [
    {
      "uri": "textures/speaker_foam_metallicRoughness.png"
    },
    {
      "uri": "textures/speaker_main_baseColor.jpeg"
    },
    {
      "uri": "textures/speaker_main_metallicRoughness.png"
    },
    {
      "uri": "textures/speaker_plates_metallicRoughness.png"
    }
  ],
  "materials": [
    {
      "doubleSided": true,
      "name": "speaker_foam",
      "pbrMetallicRoughness": {
        "baseColorFactor": [
          0.0,
          0.0,
          0.0,
          1.0
        ],
        "metallicFactor": 0.0,
        "metallicRoughnessTexture": {
          "index": 0
        },
        "roughnessFactor": 0.2544769660250393
      }
    },
    {
      "doubleSided": true,
      "name": "speaker_main",
      "occlusionTexture": {
        "index": 2
      },
      "pbrMetallicRoughness": {
        "baseColorTexture": {
          "index": 1
        },
        "metallicFactor": 0.0,
        "metallicRoughnessTexture": {
          "index": 2
        },
        "roughnessFactor": 0.6
      }
    },
    {
      "doubleSided": true,
      "name": "speaker_plates",
      "pbrMetallicRoughness": {
        "baseColorFactor": [
          0.247058,
          0.247058,
          0.247058,
          1.0
        ],
        "metallicFactor": 0.0,
        "metallicRoughnessTexture": {
          "index": 3
        }
      }
    },
    {
      "doubleSided": true,
      "name": "speaker_shiny",
      "pbrMetallicRoughness": {
        "baseColorFactor": [
          0.0,
          0.0,
          0.0,
          1.0
        ],
        "metallicFactor": 0.0,
        "roughnessFactor": 0.0
      }
    }
  ],
  "meshes": [
    {
      "name": "Object_0",
      "primitives": [
        {
          "attributes": {
            "NORMAL": 1,
            "POSITION": 0,
            "TEXCOORD_0": 2
          },
          "indices": 3,
          "material": 0,
          "mode": 4
        }
      ]
    },
    {
      "name": "Object_1",
      "primitives": [
        {
          "attributes": {
            "NORMAL": 5,
            "POSITION": 4,
            "TEXCOORD_0": 6
          },
          "indices": 7,
          "material": 1,
          "mode": 4
        }
      ]
    },
    {
      "name": "Object_2",
      "primitives": [
        {
          "attributes": {
            "NORMAL": 9,
            "POSITION": 8,
            "TEXCOORD_0": 10
          },
          "indices": 11,
          "material": 2,
          "mode": 4
        }
      ]
    },
    {
      "name": "Object_3",
      "primitives": [
        {
          "attributes": {
            "NORMAL": 13,
            "POSITION": 12,
            "TEXCOORD_0": 14
          },
          "indices": 15,
          "material": 3,
          "mode": 4
        }
      ]
    }
  ],
  "nodes": [
    {
      "children": [
        1
      ],
      "matrix": [
        0.8093138933181763,
        -1.3042376417294281e-16,
        0.5873764157295227,
        0.0,
        0.5873764157295227,
        1.7970378370217339e-16,
        -0.8093138933181763,
        0.0,
        0.0,
        1.0,
        2.220446049250313e-16,
        0.0,
        0.0,
        0.0,
        0.0,
        1.0
      ],
      "name": "Sketchfab_model"
    },
    {
      "children": [
        2,
        3,
        4,
        5
      ],
      "name": "speaker.obj.cleaner.materialmerger.gles"
    },
    {
      "mesh": 0,
      "name": "Object_2"
    },
    {
      "mesh": 1,
      "name": "Object_3"
    },
    {
      "mesh": 2,
      "name": "Object_4"
    },
    {
      "mesh": 3,
      "name": "Object_5"
    }
  ],
  "samplers": [
    {
      "magFilter": 9729,
      "minFilter": 9987,
      "wrapS": 10497,
      "wrapT": 10497
    }
  ],
  "scene": 0,
  "scenes": [
    {
      "name": "Sketchfab_Scene",
      "nodes": [
        0
      ]
    }
  ],
  "textures": [
    {
      "sampler": 0,
      "source": 0
    },
    {
      "sampler": 0,
      "source": 1
    },
    {
      "sampler": 0,
      "source": 2
    },
    {
      "sampler": 0,
      "source": 3
    }
  ]
}
